#!OML:ASF X:\für Bonn\!DataBase\2005_08_10_Bjorn_Final\c3d\bjorn.ASF
:FULLY-SPECIFIED
:DEGREES
48
root 0.627344 19.1587 15.0149 -364.469 -165.985 -719.088
lowerback 29.1881 6.09177 1.74386
upperback 23.579 0.520439 -1.03416
thorax 10.7061 -2.33834 -2.68625
lowerneck 1.78737 -1.95043 -8.8384
upperneck 7.455 -3.09931 4.87788
head 2.33417 -1.75715 3.11715
rclavicle -1.47101e-014 3.57812e-014
rhumerus -193.756 -162.886 97.467
rradius 29.3401
rwrist 13.1996
rhand -12.8924 8.73544
rfingers 7.12502
rthumb 13.1969 -20.8269
lclavicle -1.47101e-014 3.57812e-014
lhumerus 8.68213 -17.1763 71.0169
lradius 35.0674
lwrist -7.78612
lhand -27.1347 -365.185
lfingers 7.12502
lthumb -0.550178 24.7941
rfemur -18.8545 -6.2891 9.75774
rtibia 52.7027
rfoot -6.41279 18.4388
rtoes -0.900992
lfemur 169.834 176.569 167.128
ltibia 26.7629
lfoot -6.25993 -3.74587
ltoes -13.6676
49
root 0.580244 19.1493 15.0693 -364.349 -166.484 -719.122
lowerback 29.7093 6.04354 2.09313
upperback 23.7681 0.315818 -0.855416
thorax 10.7304 -2.47877 -2.65766
lowerneck 1.82831 -2.06123 -8.79871
upperneck 6.96403 -3.2203 4.8779
head 2.17137 -1.80145 3.10593
rclavicle 1.35174e-014 -7.33515e-014
rhumerus -193.227 -163.124 97.6014
rradius 29.1458
rwrist 13.1588
rhand -12.8791 8.71232
rfingers 7.12502
rthumb 13.2097 -20.8492
lclavicle 1.35174e-014 -7.33515e-014
lhumerus 9.23244 -17.7212 70.5592
lradius 36.2746
lwrist -6.98154
lhand -27.1019 -365.34
lfingers 7.12502
lthumb -0.518534 24.6395
rfemur -19.2513 -6.76949 9.60444
rtibia 52.2066
rfoot -6.86718 17.9012
rtoes -2.60632
lfemur 169.404 176.213 166.941
ltibia 27.2806
lfoot -6.43085 -3.5889
ltoes -13.8163
50
root 0.532878 19.1398 15.1233 -364.191 -166.999 -719.193
lowerback 30.168 6.02658 2.42974
upperback 24.0315 0.112434 -0.680835
thorax 10.874 -2.62894 -2.63425
lowerneck 1.64885 -2.18911 -8.66116
upperneck 6.51757 -3.34075 4.83406
head 2.06029 -1.84114 3.05978
rclavicle 1.27222e-014 -9.54166e-015
rhumerus -192.504 -163.308 97.6879
rradius 28.9323
rwrist 13.1483
rhand -12.8117 8.78957
rfingers 7.12502
rthumb 13.2747 -20.7677
lclavicle 1.27222e-014 -9.54166e-015
lhumerus 9.96471 -18.1848 70.0248
lradius 37.4445
lwrist -6.14852
lhand -27.122 -365.427
lfingers 7.12502
lthumb -0.537902 24.5524
rfemur -19.6729 -7.1776 9.4259
rtibia 51.7046
rfoot -7.23994 17.3332
rtoes -4.01052
lfemur 168.935 175.871 166.711
ltibia 27.8175
lfoot -6.62496 -3.41074
ltoes -13.7933
51
root 0.486763 19.1288 15.1774 -364.022 -167.505 -719.244
lowerback 30.6388 6.01832 2.77651
upperback 24.2785 -0.0759615 -0.442177
thorax 10.9989 -2.77579 -2.54691
lowerneck 1.51206 -2.3365 -8.58589
upperneck 6.03776 -3.49152 4.75889
head 1.93396 -1.89918 3.01472
rclavicle -2.90226e-014 2.18663e-015
rhumerus -191.775 -163.413 97.8656
rradius 28.7259
rwrist 13.164
rhand -12.7614 8.84773
rfingers 7.12502
rthumb 13.3232 -20.7064
lclavicle -2.90226e-014 2.18663e-015
lhumerus 10.7007 -18.6255 69.5827
lradius 38.5905
lwrist -5.3235
lhand -27.2433 -365.476
lfingers 7.12502
lthumb -0.655077 24.5032
rfemur -20.0877 -7.57218 9.28393
rtibia 51.1905
rfoot -7.56438 16.7167
rtoes -5.23011
lfemur 168.425 175.507 166.512
ltibia 28.3752
lfoot -6.80718 -3.26406
ltoes -13.6088
52
root 0.44093 19.116 15.2314 -363.816 -167.984 -719.311
lowerback 31.1151 6.00638 3.13982
upperback 24.4984 -0.252342 -0.17161
thorax 11.0951 -2.91346 -2.43166
lowerneck 1.42561 -2.4939 -8.60233
upperneck 5.51433 -3.66408 4.74839
head 1.79061 -1.96965 3.00992
rclavicle -1.11319e-014 -1.96797e-014
rhumerus -191.093 -163.476 98.1216
rradius 28.5616
rwrist 13.1843
rhand -12.758 8.89172
rfingers 7.12502
rthumb 13.3265 -20.6621
lclavicle -1.11319e-014 -1.96797e-014
lhumerus 11.4351 -18.9867 69.2643
lradius 39.715
lwrist -4.5823
lhand -27.3649 -365.522
lfingers 7.12502
lthumb -0.772556 24.4566
rfemur -20.5137 -7.94509 9.13837
rtibia 50.6765
rfoot -7.858 16.0534
rtoes -6.39164
lfemur 167.858 175.178 166.283
ltibia 28.9535
lfoot -7.00063 -3.10777
ltoes -13.5661
53
root 0.395147 19.102 15.2846 -363.588 -168.489 -719.398
lowerback 31.5919 6.00537 3.47278
upperback 24.7059 -0.421404 0.107249
thorax 11.1798 -3.05323 -2.29033
lowerneck 1.32829 -2.6544 -8.66172
upperneck 4.99432 -3.84251 4.73569
head 1.65253 -2.04478 3.01279
rclavicle -1.05356e-014 -3.70733e-014
rhumerus -190.386 -163.546 98.4103
rradius 28.3891
rwrist 13.1616
rhand -12.7362 8.96832
rfingers 7.12502
rthumb 13.3475 -20.5842
lclavicle -1.05356e-014 -3.70733e-014
lhumerus 12.1645 -19.2099 69.0047
lradius 40.7822
lwrist -3.93813
lhand -27.4555 -365.557
lfingers 7.12502
lthumb -0.860025 24.4214
rfemur -20.961 -8.29494 8.98159
rtibia 50.1612
rfoot -8.07117 15.3777
rtoes -7.24136
lfemur 167.256 174.875 166.032
ltibia 29.5677
lfoot -7.21495 -2.91676
ltoes -13.3517
54
root 0.350753 19.087 15.337 -363.313 -168.985 -719.485
lowerback 32.0388 5.99625 3.80256
upperback 24.8928 -0.587891 0.376904
thorax 11.2553 -3.18671 -2.15481
lowerneck 1.27788 -2.81088 -8.67611
upperneck 4.40965 -4.01968 4.73568
head 1.48458 -2.11806 3.01274
rclavicle 2.28602e-015 -4.42296e-014
rhumerus -189.671 -163.562 98.6774
rradius 28.2209
rwrist 13.1724
rhand -12.7447 9.02317
rfingers 7.12502
rthumb 13.3393 -20.5299
lclavicle 2.28602e-015 -4.42296e-014
lhumerus 12.8799 -19.2744 68.8027
lradius 41.8139
lwrist -3.43398
lhand -27.5096 -365.615
lfingers 7.12502
lthumb -0.912277 24.3628
rfemur -21.4662 -8.62623 8.84975
rtibia 49.6563
rfoot -8.20887 14.6521
rtoes -7.92036
lfemur 166.577 174.594 165.778
ltibia 30.2186
lfoot -7.44334 -2.7142
ltoes -13.2152
55
root 0.307013 19.0686 15.3888 -363.017 -169.46 -719.588
lowerback 32.4792 5.97836 4.14665
upperback 25.067 -0.754353 0.643184
thorax 11.3228 -3.31545 -2.02788
lowerneck 1.25788 -2.96932 -8.72004
upperneck 3.8372 -4.20691 4.78777
head 1.31903 -2.19778 3.03721
rclavicle 6.60959e-015 -4.72114e-015
rhumerus -188.976 -163.453 98.9564
rradius 28.0584
rwrist 13.245
rhand -12.7226 9.14652
rfingers 7.12502
rthumb 13.3606 -20.4051
lclavicle 6.60959e-015 -4.72114e-015
lhumerus 13.6102 -19.3415 68.5289
lradius 42.8362
lwrist -2.89362
lhand -27.5343 -365.736
lfingers 7.12502
lthumb -0.936167 24.2415
rfemur -21.9951 -8.94081 8.70542
rtibia 49.1691
rfoot -8.25281 13.9016
rtoes -8.06567
lfemur 165.843 174.336 165.502
ltibia 30.9075
lfoot -7.69799 -2.48925
ltoes -13.0678
56
root 0.263642 19.0466 15.4402 -362.688 -169.941 -719.76
lowerback 32.9405 5.96202 4.46239
upperback 25.1877 -0.8911 0.889309
thorax 11.3192 -3.42341 -1.90522
lowerneck 1.33151 -3.1281 -8.77893
upperneck 3.29595 -4.40789 4.88469
head 1.15048 -2.28706 3.08195
rclavicle 8.10048e-015 5.26779e-015
rhumerus -188.413 -163.478 99.2904
rradius 27.9517
rwrist 13.1241
rhand -12.788 9.16973
rfingers 7.12502
rthumb 13.2975 -20.386
lclavicle 8.10048e-015 5.26779e-015
lhumerus 14.2702 -19.4999 68.1679
lradius 43.9266
lwrist -2.24252
lhand -27.5249 -365.931
lfingers 7.12502
lthumb -0.927074 24.0471
rfemur -22.567 -9.27237 8.49584
rtibia 48.7198
rfoot -8.23664 13.2097
rtoes -8.26984
lfemur 165.07 174.094 165.144
ltibia 31.6349
lfoot -7.94838 -2.26295
ltoes -12.8495
57
root 0.220802 19.0215 15.4911 -362.336 -170.407 -720.032
lowerback 33.4323 5.95593 4.72373
upperback 25.2613 -0.997123 1.14394
thorax 11.2475 -3.51848 -1.74287
lowerneck 1.55183 -3.29364 -8.88437
upperneck 2.70871 -4.63292 5.03011
head 0.946525 -2.3906 3.15602
rclavicle -6.75868e-015 4.00551e-014
rhumerus -187.922 -163.35 99.6937
rradius 27.8269
rwrist 13.1551
rhand -12.9145 9.21234
rfingers 7.12502
rthumb 13.1756 -20.3513
lclavicle -6.75868e-015 4.00551e-014
lhumerus 14.8881 -19.7076 67.8618
lradius 44.992
lwrist -1.64697
lhand -27.4624 -366.165
lfingers 7.12502
lthumb -0.866669 23.8126
rfemur -23.1679 -9.5908 8.18604
rtibia 48.312
rfoot -8.13204 12.5049
rtoes -8.22383
lfemur 164.256 173.908 164.671
ltibia 32.4039
lfoot -8.25193 -1.99221
ltoes -12.7506
58
root 0.177346 18.9921 15.5415 -361.962 -170.839 -720.4
lowerback 33.9315 5.94247 4.94619
upperback 25.3023 -1.09719 1.40188
thorax 11.1344 -3.61098 -1.55229
lowerneck 1.88134 -3.45522 -9.04169
upperneck 2.11632 -4.86525 5.2088
head 0.725614 -2.5005 3.2557
rclavicle -9.93923e-016 -4.21423e-014
rhumerus -187.504 -163.189 100.184
rradius 27.7291
rwrist 13.1023
rhand -12.9924 9.24577
rfingers 7.12502
rthumb 13.1005 -20.3227
lclavicle -9.93923e-016 -4.21423e-014
lhumerus 15.4659 -19.9763 67.6084
lradius 46.0431
lwrist -1.15365
lhand -27.465 -366.396
lfingers 7.12502
lthumb -0.869158 23.5819
rfemur -23.7952 -9.93455 7.7742
rtibia 47.9579
rfoot -7.9754 11.8476
rtoes -8.20486
lfemur 163.406 173.781 164.084
ltibia 33.2099
lfoot -8.56503 -1.68255
ltoes -12.4524
59
root 0.134542 18.9582 15.5901 -361.577 -171.292 -720.771
lowerback 34.4709 5.90997 5.19858
upperback 25.2731 -1.16431 1.62131
thorax 10.925 -3.66844 -1.41518
lowerneck 2.40511 -3.60692 -9.10369
upperneck 1.48537 -5.09954 5.40187
head 0.456579 -2.61314 3.3498
rclavicle -1.03368e-014 8.15017e-015
rhumerus -187.205 -162.971 100.675
rradius 27.6425
rwrist 12.9949
rhand -12.9522 9.357
rfingers 7.12502
rthumb 13.1393 -20.209
lclavicle -1.03368e-014 8.15017e-015
lhumerus 15.9423 -20.3076 67.3298
lradius 47.1089
lwrist -0.707041
lhand -27.4082 -366.658
lfingers 7.12502
lthumb -0.814379 23.3202
rfemur -24.4599 -10.2789 7.36996
rtibia 47.6469
rfoot -7.7277 11.2577
rtoes -8.00424
lfemur 162.519 173.681 163.493
ltibia 34.0628
lfoot -8.9104 -1.35707
ltoes -12.3168
